HIERARCHY
ROOT hip
{
	OFFSET 0.000000 0.000000 0.000000 
	CHANNELS 6 Xposition Yposition Zposition Xrotation Zrotation Yrotation
	JOINT abdomen
	{
		OFFSET 0.000000 3.402643 0.000000 
		CHANNELS 3 Xrotation Zrotation Yrotation
		JOINT chest
		{
			OFFSET 0.000000 8.438565 -0.680529 
			CHANNELS 3 Xrotation Zrotation Yrotation
			JOINT neck
			{
				OFFSET 0.000000 10.207942 -0.272212 
				CHANNELS 3 Xrotation Zrotation Yrotation
				JOINT head
				{
					OFFSET 0.000000 3.130431 0.000000 
					CHANNELS 3 Xrotation Zrotation Yrotation
					End Site
					{
						OFFSET 0.000000 3.130435 0.000000 
					}
				}
			}
			JOINT lCollar
			{
				OFFSET 3.470700 6.669187 -0.816635 
				CHANNELS 3 Yrotation Zrotation Xrotation
				JOINT lShldr
				{
					OFFSET 3.198488 0.000000 0.000000 
					CHANNELS 3 Zrotation Yrotation Xrotation
					JOINT lForeArm
					{
						OFFSET 10.139888 0.000000 0.000000 
						CHANNELS 3 Yrotation Zrotation Xrotation
						JOINT lHand
						{
							OFFSET 8.370511 0.000000 0.000000 
							CHANNELS 3 Zrotation Yrotation Xrotation
							End Site
							{
								OFFSET 4.083176 0.000000 0.000000 
							}
						}
					}
				}
			}
			JOINT rCollar
			{
				OFFSET -3.470700 6.669187 -0.816635 
				CHANNELS 3 Yrotation Zrotation Xrotation
				JOINT rShldr
				{
					OFFSET -3.198488 0.000000 0.000000 
					CHANNELS 3 Zrotation Yrotation Xrotation
					JOINT rForeArm
					{
						OFFSET -10.139888 0.000000 0.000000 
						CHANNELS 3 Yrotation Zrotation Xrotation
						JOINT rHand
						{
							OFFSET -8.370511 0.000000 0.000000 
							CHANNELS 3 Zrotation Yrotation Xrotation
							End Site
							{
								OFFSET -4.083176 0.000000 0.000000 
							}
						}
					}
				}
			}
		}
	}
	JOINT lThigh
	{
		OFFSET 5.308129 -1.633274 1.361059 
		CHANNELS 3 Xrotation Zrotation Yrotation
		JOINT lShin
		{
			OFFSET -2.041588 -20.007561 0.000000 
			CHANNELS 3 Xrotation Zrotation Yrotation
			JOINT lFoot
			{
				OFFSET 0.000000 -19.190928 -1.224953 
				CHANNELS 3 Xrotation Yrotation Zrotation
				End Site
				{
					OFFSET 0.000000 -2.449906 4.627600 
				}
			}
		}
	}
	JOINT rThigh
	{
		OFFSET -5.308129 -1.633274 1.361059 
		CHANNELS 3 Xrotation Zrotation Yrotation
		JOINT rShin
		{
			OFFSET 2.041588 -20.007561 0.000000 
			CHANNELS 3 Xrotation Zrotation Yrotation
			JOINT rFoot
			{
				OFFSET 0.000000 -19.190928 -1.224953 
				CHANNELS 3 Xrotation Yrotation Zrotation
				End Site
				{
					OFFSET 0.000000 -2.449906 4.627600 
				}
			}
		}
	}
}
MOTION
Frames: 18
Frame Time: 0.033333
11.113770 5.041436 -64.340309 1.054688 -2.812500 -44.189934 0.000000 0.000000 0.000000 21.240234 6.718750 -5.478516 -8.447267 0.000000 0.000000 13.359375 1.396484 -25.019293 -2.812500 -0.087891 -0.009766 -85.429688 -14.628908 -18.889185 -15.693358 -14.638673 9.055202 61.435543 -27.089846 -12.578125 2.802734 0.078125 -0.009779 70.478516 14.248047 -16.413612 24.638672 13.818359 18.154299 -54.794918 28.701172 3.325002 -5.303106 25.627371 15.261414 24.910515 -5.966761 1.326428 -15.407248 4.475281 -10.878888 -14.395064 -26.602179 -12.334924 17.686941 13.227977 2.489288 -2.832159 9.209024 11.129986 
11.107086 5.037471 -64.345627 1.230469 -2.812500 -44.199219 0.000000 0.000000 0.000000 21.240234 6.718750 -5.478516 -8.447267 0.000000 0.000000 13.359375 1.396484 -24.843513 -2.812500 -0.087891 -0.009766 -85.419922 -14.804688 -18.886719 -15.693358 -14.638673 9.055202 61.083988 -27.119143 -12.416561 2.802734 0.078125 -0.009779 70.478516 14.248047 -16.413612 24.619141 13.662108 18.222654 -54.814453 28.867188 3.320312 -5.478814 25.614700 15.044149 24.933960 -5.977502 1.486711 -15.250319 4.400391 -10.908556 -14.236164 -26.691511 -12.202718 17.430023 13.250876 2.130506 -2.672694 8.997330 11.233953 
11.088162 5.040304 -64.360809 1.230469 -2.812500 -44.199219 0.000000 0.000000 0.000000 21.240234 6.718750 -5.478516 -8.447267 0.000000 0.000000 13.359375 1.396484 -24.843513 -2.812500 -0.087891 -0.009766 -85.595703 -14.814451 -18.886719 -15.693360 -14.648438 8.876952 60.917965 -27.128908 -12.236330 2.802734 0.078125 -0.009779 70.302734 14.238280 -16.416016 24.619143 13.671874 18.044567 -54.638672 28.886717 3.320313 -5.479069 25.779066 15.226171 25.097296 -5.967101 1.474119 -15.239979 4.374252 -10.922583 -14.598523 -26.695688 -12.316382 17.878643 13.235287 2.518839 -2.811381 9.217614 11.119120 
11.054060 5.037471 -64.383583 1.406250 -2.812500 -44.199219 0.000000 0.000000 0.000000 21.240234 6.718750 -5.654297 -8.447267 0.000000 0.000000 13.359375 1.396484 -24.667730 -2.812500 -0.087891 -0.009766 -85.585938 -14.990235 -18.886719 -15.683593 -14.472657 8.918455 60.380859 -27.001955 -11.898965 2.802734 0.078125 -0.009779 70.302734 14.238280 -16.416016 24.619143 13.671874 18.044567 -54.287113 28.916016 3.310547 -5.654471 26.099382 15.213528 25.097298 -5.967090 1.474122 -15.229631 4.515433 -11.044928 -14.392414 -26.408516 -12.172551 17.697886 13.490950 2.177650 -2.900433 9.422111 11.046710 
11.011344 5.037471 -64.409203 1.406250 -2.812500 -44.199219 0.000000 0.000000 0.000000 21.230471 6.552734 -5.721541 -8.447267 0.000000 0.000000 13.359375 1.572266 -24.472391 -2.812500 -0.087891 -0.009766 -85.751953 -15.175782 -18.889275 -15.498048 -14.501953 8.779296 59.853516 -27.041016 -11.728517 2.802734 0.078125 -0.009779 70.136719 14.052735 -16.189034 24.794924 13.652345 18.005507 -54.130859 29.101564 3.315299 -5.654741 26.264694 15.385493 25.277933 -5.987758 1.287159 -15.254365 4.196554 -11.017576 -14.422882 -26.353729 -12.732393 17.878658 13.240724 2.354645 -2.809618 9.604520 11.077345 
10.968631 5.040304 -64.440468 1.582031 -2.812500 -44.208984 0.000000 0.000000 0.000000 21.230471 6.552734 -5.721541 -8.447267 0.000000 0.000000 13.359375 1.572266 -24.296608 -2.812500 -0.087891 -0.009766 -85.751953 -15.351563 -18.889303 -15.498048 -14.501953 8.779296 59.687500 -27.060545 -11.557177 2.802734 0.078125 -0.009779 70.136719 14.052735 -16.189034 24.794922 13.662109 17.829723 -53.964844 29.121096 3.315300 -5.830626 26.224953 15.344268 25.277933 -5.987758 1.287158 -15.254589 4.162843 -11.013854 -14.558330 -26.271839 -12.693403 17.878658 13.240723 2.354645 -2.926809 9.468202 10.857724 
10.926025 5.040304 -64.466072 1.757813 -2.812500 -44.218750 0.000000 0.000000 0.000000 21.230471 6.552734 -5.721541 -8.447267 0.000000 0.000000 13.359375 1.748047 -24.277050 -2.812500 -0.087891 -0.009766 -85.751953 -15.351563 -19.065084 -15.488280 -14.345702 8.654762 59.667965 -26.884766 -11.552734 2.802734 0.078125 -0.009779 69.960938 14.042969 -16.189035 24.794922 13.662109 17.829723 -53.808598 29.306641 3.398438 -5.830188 26.585835 15.361719 25.471506 -5.973270 1.252208 -15.254705 4.109933 -10.877122 -14.558401 -26.086658 -12.527760 18.055920 13.329779 2.045274 -3.134249 9.572863 10.935511 
10.880477 5.048915 -64.491684 1.757813 -2.812500 -44.218750 0.000000 0.000000 0.000000 21.230471 6.552734 -5.721541 -8.447267 0.000000 0.000000 13.359375 1.748047 -24.101265 -2.812500 -0.087891 -0.009766 -85.742188 -15.527344 -19.065115 -15.488280 -14.345702 8.654762 59.492184 -26.894531 -11.376954 2.802734 0.078125 -0.009779 69.785156 14.033203 -16.191406 24.804688 13.671874 17.656248 -53.632809 29.326172 3.403221 -6.016124 26.716955 15.509957 25.446768 -5.966667 1.081406 -15.238125 3.954006 -10.961258 -14.558481 -25.871468 -12.531168 18.055916 13.329781 2.045275 -3.269458 9.556340 10.945363 
10.832098 5.057408 -64.514442 1.933594 -2.812500 -44.228519 0.000000 0.000000 0.000000 21.054686 6.562500 -5.742188 -8.447267 0.000000 0.000000 13.359375 1.748047 -24.101265 -2.812500 -0.087891 -0.009766 -85.742188 -15.527344 -19.065115 -15.478517 -14.169923 8.691406 59.472656 -26.718752 -11.381345 2.802734 0.078125 -0.009779 69.609375 14.033203 -16.181641 24.980467 13.652344 17.617188 -53.457027 29.335939 3.579005 -6.006118 26.890326 15.514913 25.446770 -5.966660 1.081409 -15.234653 3.900087 -11.000853 -14.598963 -25.818138 -12.912312 18.093039 13.265121 2.440240 -3.317125 9.431705 10.700407 
10.792216 5.063076 -64.531555 1.933594 -2.812500 -44.052734 0.000000 0.000000 0.000000 21.054686 6.562500 -5.742188 -8.447267 0.000000 0.000000 13.359375 1.748047 -23.925486 -2.812500 -0.087891 -0.009766 -85.566406 -15.517577 -19.240894 -15.478517 -14.169923 8.691406 59.472656 -26.718752 -11.557127 2.802734 0.078125 -0.009779 69.609375 14.033203 -16.181641 24.999998 13.818359 17.373049 -53.281246 29.355471 3.579007 -6.357711 27.184229 15.288583 25.283932 -5.977145 1.103687 -15.378203 4.133936 -11.448229 -14.598954 -25.818144 -12.912308 18.219265 13.391484 2.613990 -3.318299 9.277509 10.615754 
10.755279 5.068740 -64.542892 2.109375 -2.636719 -44.053185 0.000000 0.000000 0.000000 21.054686 6.562500 -5.742188 -8.447267 0.000000 0.000000 13.359375 1.748047 -23.925486 -2.812500 -0.087891 -0.009766 -85.566406 -15.517577 -19.240894 -15.478517 -14.169923 8.691406 59.472656 -26.718752 -11.381345 2.802734 0.078125 -0.009779 69.433594 14.023438 -16.181641 24.999998 13.818359 17.373049 -53.300781 29.531248 3.749999 -6.357713 27.184229 15.288585 25.283932 -5.977145 1.103687 -15.235511 4.349174 -11.133857 -14.598955 -25.818140 -12.912310 18.219635 13.391296 2.604234 -3.359447 9.342372 10.480471 
10.726841 5.074519 -64.545723 2.109375 -2.636719 -44.053185 0.000000 0.000000 0.000000 21.064453 6.728516 -5.682449 -8.447267 0.000000 0.000000 13.359375 1.748047 -23.925486 -2.812500 -0.087891 -0.009766 -85.390625 -15.507813 -19.240894 -15.292968 -14.189454 8.771924 59.296875 -26.738281 -11.386719 2.802734 0.078125 -0.009779 69.433594 14.023438 -16.181641 24.999998 13.818359 17.373049 -53.134766 29.541016 3.750000 -6.357631 27.381889 15.113856 25.252184 -5.957015 0.936625 -15.198238 4.298172 -11.381633 -14.588437 -25.639212 -12.737654 17.951477 13.432359 2.238847 -3.273526 9.443563 10.700823 
10.698287 5.077352 -64.542892 2.109375 -2.636719 -44.053185 0.000000 0.000000 0.000000 21.064453 6.728516 -5.858231 -8.447267 0.000000 0.000000 13.359375 1.748047 -23.749702 -2.812500 -0.087891 -0.009766 -85.390625 -15.507813 -19.240894 -15.292968 -14.169923 8.947703 59.296875 -26.738281 -11.386719 2.802734 0.078125 -0.009779 69.433594 14.023438 -16.181641 24.999998 13.818359 17.373049 -53.134766 29.541016 3.925781 -6.357932 27.207563 14.923180 24.958189 -5.810777 1.139731 -15.052950 4.500600 -11.064161 -14.588435 -25.639212 -12.737652 17.839054 13.289288 2.015717 -3.258008 9.273787 10.639008 
10.672795 5.085849 -64.537231 2.109375 -2.636719 -44.053185 0.000000 0.000000 0.000000 21.240234 6.718750 -5.830078 -8.447267 0.000000 0.000000 13.359375 1.748047 -23.749702 -2.812500 -0.087891 -0.009766 -85.214844 -15.498048 -19.238281 -15.292968 -14.169923 8.947703 59.130859 -26.748045 -11.391113 2.802734 0.078125 -0.009779 69.257813 14.013672 -16.181641 24.999998 13.818359 17.373049 -53.134766 29.541016 3.925781 -6.523433 27.175337 14.916462 24.741611 -5.811481 1.003979 -14.723393 4.685695 -10.956149 -14.744822 -25.572067 -12.529053 17.839067 13.289268 2.015714 -3.254055 9.519050 10.551052 
10.650022 5.088685 -64.525780 2.285156 -2.636719 -44.238277 0.000000 0.000000 0.000000 21.240234 6.718750 -5.830078 -8.447267 0.000000 0.000000 13.359375 1.748047 -23.573921 -2.812500 -0.087891 -0.009766 -85.214844 -15.498048 -19.238281 -15.292968 -14.169923 8.947703 58.955078 -26.767580 -11.215336 2.802734 0.078125 -0.009779 69.257813 14.189453 -16.181639 24.980467 13.662108 17.441406 -53.134766 29.541016 3.750000 -6.523440 27.175337 14.912005 24.741987 -5.809832 1.004223 -14.691282 4.846260 -11.079535 -14.744787 -25.376982 -12.541417 17.841099 13.286173 2.024839 -3.078727 9.343714 10.636737 
10.630079 5.091513 -64.508781 2.285156 -2.636719 -44.238277 0.000000 0.000000 0.000000 21.240234 6.718750 -5.654297 -8.447267 0.000000 0.000000 13.359375 1.748047 -23.573921 -2.812500 -0.087891 -0.009766 -85.214844 -15.498048 -19.062500 -15.292968 -14.169923 8.947703 58.955078 -26.767580 -11.215336 2.802734 0.078125 -0.009779 69.423836 14.199219 -16.218306 24.804688 13.691407 17.304686 -53.134766 29.541016 3.750000 -6.523441 27.175339 14.912005 24.572994 -5.792060 0.673305 -14.693204 5.264442 -11.055193 -14.744787 -25.376980 -12.541419 17.849592 13.285303 2.210701 -2.726879 9.133638 10.331703 
10.621468 5.100128 -64.477516 2.285156 -2.636719 -44.238277 0.000000 0.000000 0.000000 21.240234 6.718750 -5.654297 -8.447267 0.000000 0.000000 13.535155 1.748047 -23.398439 -2.812500 -0.087891 -0.009766 -85.214844 -15.498048 -19.062500 -15.107422 -14.189452 8.994142 58.779297 -26.777344 -11.396484 2.802734 0.078125 -0.009779 69.423836 14.199219 -16.218306 24.804688 13.691407 17.304686 -53.115234 29.365234 3.750000 -6.357925 27.207569 14.923176 24.579632 -5.808817 0.679675 -14.846118 5.379154 -10.992197 -14.930133 -25.425032 -12.881314 17.889318 13.236868 2.539927 -2.471808 9.209608 10.333394 
10.621468 5.105792 -64.446129 2.285156 -2.636719 -44.414059 0.000000 0.000000 0.000000 21.240234 6.718750 -5.654297 -8.447267 0.000000 0.000000 13.535155 1.748047 -23.398439 -2.812500 -0.087891 -0.009766 -85.224609 -15.322266 -18.889301 -15.107422 -14.189452 8.994142 58.779297 -26.777344 -11.396484 2.802734 0.078125 -0.009779 69.599609 14.199219 -16.230467 24.785158 13.535156 17.370760 -53.115234 29.365234 3.750000 -6.357922 27.207563 14.923176 24.579632 -5.808822 0.679674 -14.836633 5.373379 -10.995278 -14.938766 -25.441008 -12.691280 17.887442 13.240089 2.521106 -2.151325 9.437855 10.398053 
